<?xml version="1.0" standalone="no"?>
<!DOCTYPE svg PUBLIC "-//W3C//DTD SVG 20010904//EN"
 "http://www.w3.org/TR/2001/REC-SVG-20010904/DTD/svg10.dtd">
<svg version="1.0" xmlns="http://www.w3.org/2000/svg"
 width="512.000000pt" height="512.000000pt" viewBox="0 0 512.000000 512.000000"
 preserveAspectRatio="xMidYMid meet">

<g transform="translate(0.000000,512.000000) scale(0.100000,-0.100000)"
fill="#000000" stroke="none">
<path d="M2315 5109 c-798 -81 -1501 -518 -1927 -1196 -487 -774 -516 -1777
-75 -2578 199 -363 487 -676 837 -910 242 -162 602 -313 880 -369 214 -43 295
-51 530 -51 236 0 333 10 532 51 879 183 1616 843 1897 1699 93 282 126 493
126 805 0 301 -32 513 -116 775 -124 390 -330 728 -622 1024 -398 403 -895
653 -1462 737 -122 18 -477 26 -600 13z m525 -220 c326 -38 675 -161 958 -337
288 -179 570 -460 752 -752 68 -108 179 -338 220 -455 113 -323 159 -726 120
-1050 -32 -269 -111 -533 -231 -775 -132 -264 -265 -447 -473 -648 -368 -356
-816 -570 -1346 -643 -217 -30 -548 -13 -790 41 -514 115 -979 403 -1316 815
-195 238 -366 577 -443 878 -144 561 -88 1117 164 1632 271 553 758 984 1340
1183 335 115 692 153 1045 111z"/>
<path d="M1440 2560 l0 -1120 255 0 255 0 0 648 c1 581 2 645 16 627 8 -11
139 -224 291 -472 256 -423 277 -453 303 -453 26 0 46 31 303 453 152 248 283
461 291 472 14 18 15 -47 16 -627 l0 -648 255 0 255 0 0 1120 0 1120 -257 0
-258 -1 -300 -494 c-165 -272 -302 -495 -305 -495 -3 0 -140 223 -305 495
l-300 494 -257 1 -258 0 0 -1120z"/>
</g>
</svg>
