<svg width="617" height="530" viewBox="0 0 617 530" fill="none" xmlns="http://www.w3.org/2000/svg">
<path fill-rule="evenodd" clip-rule="evenodd" d="M583.977 149.825C581.662 115.625 561.983 85.8188 529.436 66.7887C497.012 47.8303 452.032 39.5928 398.122 47.0955C330.734 56.4737 285.293 93.5394 266.082 137.526C246.901 181.446 254.233 232.001 291.853 265.471C295.979 269.142 302.3 268.773 305.971 264.647C309.642 260.521 309.273 254.2 305.147 250.529C274.767 223.499 268.261 182.508 284.411 145.53C300.531 108.618 339.59 75.4339 400.878 66.9046C451.468 59.8641 491.673 67.8766 519.341 84.054C546.887 100.16 562.208 124.375 564.023 151.176C566.968 194.671 538.674 226.022 500.397 246.757C462.069 267.519 416.657 275.835 392.205 274.203C388.135 273.931 384.308 276.159 382.534 279.832C379.281 286.567 375.561 295.593 372.386 303.711C362.932 284.675 350.96 257.316 344.409 231.226C342.114 222.083 339.977 210.057 338.897 197.48C343.256 201.173 348.266 204.976 353.809 208.644C373.581 221.727 401.4 233.922 431.641 231.979C432.841 231.902 433.979 231.616 435.02 231.159C438.479 230.281 441.354 227.574 442.273 223.868C445.906 209.204 447.779 191.461 448.371 174.687C457.126 171.837 468.006 168.585 478.296 166.032C479.495 165.734 480.673 165.45 481.826 165.179C481.645 176.174 481.752 187.127 482.485 196.087C482.891 201.04 483.515 205.759 484.517 209.675C485.018 211.632 485.688 213.69 486.638 215.591C487.533 217.382 489.068 219.832 491.702 221.633C496.261 224.751 502.484 223.582 505.601 219.023C508.379 214.961 507.754 209.577 504.359 206.247C504.239 205.927 504.076 205.431 503.893 204.716C503.297 202.389 502.787 198.952 502.419 194.455C501.735 186.11 501.638 175.402 501.846 164.189C502.488 164.809 503.223 165.352 504.047 165.797C508.906 168.422 514.973 166.61 517.597 161.75C518.648 159.805 519.874 156.693 519.306 152.988C518.664 148.795 516.076 145.944 513.47 144.347C511.151 142.926 508.698 142.377 506.902 142.121C505.481 141.919 504.016 141.841 502.572 141.839C502.786 136.898 503.018 132.188 503.234 127.906C503.296 126.689 503.357 125.492 503.417 124.326L503.418 124.293C503.821 116.409 504.156 109.871 504.071 107.12C503.9 101.6 499.287 97.2634 493.767 97.4338C488.247 97.6043 483.91 102.217 484.08 107.738C484.138 109.597 483.853 115.208 483.423 123.678L483.423 123.679L483.35 125.109C483.321 125.693 483.29 126.289 483.26 126.897C482.992 132.194 482.698 138.209 482.44 144.545C479.488 145.173 476.475 145.877 473.479 146.62C465.189 148.678 456.398 151.202 448.457 153.672C448.086 140.564 446.901 128.794 444.981 120.89C443.869 116.313 441.847 111.946 438.31 108.799C434.507 105.416 429.84 104.248 425.436 104.821C417.641 105.835 411.761 111.893 409.132 117.583C406.816 122.597 409.002 128.539 414.016 130.855C418.3 132.834 423.262 131.526 426.06 127.975C427.503 135.342 428.472 146.96 428.574 160.383C426.468 161.175 424.767 161.861 423.579 162.4C418.549 164.68 416.32 170.607 418.6 175.637C420.319 179.429 424.111 181.629 428.028 181.505C427.392 192.205 426.196 202.809 424.372 212.179C402.264 211.94 381.158 202.759 364.846 191.965C359.198 188.227 354.254 184.38 350.179 180.8C355.636 180.367 361.383 179.532 366.931 178.186C381.418 174.671 400.612 166.018 402.903 145.629C404.528 131.168 394.834 120.519 383.614 115.684C372.27 110.796 357.644 110.71 344.264 117.352C334.314 122.292 328.12 131.239 324.345 140.931C320.577 150.606 318.864 161.87 318.343 173.077C317.299 195.505 320.94 219.88 325.011 236.096C335.011 275.923 356.433 317.6 365.197 332.823C365.239 332.903 365.282 332.984 365.328 333.066C366.16 334.563 367.914 336.745 371.037 337.739C374.078 338.708 376.662 337.986 378.042 337.39C379.386 336.809 380.289 336.066 380.711 335.692C382.346 334.243 383.409 332.357 383.849 330.343C383.864 330.297 383.88 330.245 383.899 330.187C384.123 329.511 384.494 328.434 385.002 327.011C386.009 324.184 387.48 320.186 389.2 315.684C391.827 308.809 394.955 300.97 397.85 294.398C427.011 294.546 471.807 284.99 509.923 264.342C551.279 241.94 587.691 204.68 583.977 149.825ZM342.982 148.189C341.511 151.965 340.394 156.336 339.608 161.161C345.893 161.255 354.233 160.687 362.215 158.75C375.827 155.448 382.3 149.873 383.028 143.396C383.36 140.443 381.706 136.64 375.699 134.051C369.815 131.516 361.335 131.207 353.157 135.266C349.164 137.249 345.663 141.304 342.982 148.189ZM504.273 161.956C504.272 161.956 504.249 161.952 504.207 161.941C504.253 161.95 504.274 161.955 504.273 161.956ZM504.527 206.649C504.571 206.722 504.568 206.731 504.528 206.651L504.527 206.649Z" fill="url(#paint0_linear_19_244)"/>
<path d="M209.315 300.053C208.628 296.854 207.017 294.058 204.529 291.76C196.236 283.467 187.256 277.212 177.826 273.137C168.396 269.085 158.373 267.024 148.019 267.024C134.94 267.024 123.283 269.18 113.403 273.421C103.523 277.662 94.827 283.562 87.5293 290.954C80.2554 298.323 74.0002 306.9 68.9298 316.472C63.883 325.997 59.6418 336.375 56.3484 347.322C53.055 358.221 50.3539 369.428 48.3399 380.588C45.5915 396.225 45.2598 410.394 47.3685 422.715C49.4772 435.059 53.4578 445.745 59.1917 454.417C64.9255 463.113 71.9863 469.842 80.1369 474.367C88.2875 478.916 97.0542 481.215 106.153 481.215C120.013 481.215 133.069 477.945 144.963 471.477C156.833 465.032 167.685 456.55 177.257 446.243C181.38 441.741 184.01 438.282 185.242 435.699C186.522 433.045 187.043 430.866 186.83 429.065C186.616 426.435 185.55 424.326 183.607 422.786C181.712 421.293 179.248 420.535 176.31 420.535C173.514 420.535 170.907 421.625 168.562 423.805C166.358 425.819 163.515 428.496 160.008 431.813C151.834 439.988 143.281 446.74 134.585 451.906C125.96 457.023 116.483 459.63 106.413 459.63C98.8075 459.63 91.7942 456.526 85.5627 450.389C79.2839 444.205 74.6873 435.131 71.9152 423.426C69.1193 411.674 69.0719 397.458 71.7967 381.133C73.242 372.39 75.2797 363.528 77.8149 354.809C80.3501 346.113 83.5725 337.631 87.3872 329.622C91.1781 321.661 95.9406 314.506 101.556 308.369C107.148 302.256 113.806 297.375 121.364 293.845C128.922 290.338 137.76 288.561 147.688 288.561C155.056 288.561 162.283 290.054 169.201 293.039C176.12 296.001 182.944 300.811 189.436 307.303C192.35 310.217 195.407 311.734 198.558 311.829C201.757 311.947 204.458 310.881 206.638 308.677C209.054 306.261 209.931 303.346 209.22 300.029L209.315 300.053Z" fill="#0D263C"/>
<path d="M300.346 369.309C295.347 365.353 288.713 363.339 280.68 363.339C271.89 363.339 263.834 366.277 256.726 372.058C252.153 375.801 247.533 380.659 242.936 386.629L261.749 279.368C262.531 275.625 261.962 272.592 260.043 270.341C258.124 268.137 255.257 267 251.537 267C248.078 267 245.116 267.853 242.77 269.512C240.377 271.194 238.79 273.942 238.008 277.638L204.434 469.747C204.031 472.756 204.789 475.433 206.685 477.732C208.604 480.054 211.471 481.215 215.215 481.215C219.503 481.215 222.702 480.006 224.692 477.59C226.611 475.291 227.796 473.017 228.175 470.837L236.918 420.962C244.405 409.518 251.182 400.751 257.105 394.827C264.047 387.885 270.421 384.355 276.013 384.355C279.756 384.355 282.6 385.421 284.424 387.482C286.319 389.639 287.552 392.411 288.073 395.704C288.594 399.069 288.428 402.741 287.528 406.698L276.51 469.439C276.107 471.832 276.652 474.391 278.121 477.045C279.662 479.817 282.647 481.215 287.007 481.215C292.124 481.215 295.442 480.054 297.1 477.661C298.64 475.457 299.564 473.704 299.991 472.211L310.985 409.494C312.643 400.798 312.548 392.837 310.7 385.848C308.828 378.811 305.346 373.243 300.346 369.286V369.309Z" fill="#0D263C"/>
<path d="M422.108 364.973H402.845C389.553 364.973 377.398 367.746 366.665 373.195C355.932 378.645 346.999 386.487 340.057 396.462C333.138 406.437 328.328 418.403 325.746 432.027C322.974 447.404 324.206 459.772 329.418 468.823C334.702 477.969 343.09 482.613 354.391 482.613C362.85 482.613 371.475 478.419 380.052 470.126C385.098 465.221 389.908 458.8 394.41 450.887L390.951 470.576C390.548 472.803 391.093 475.149 392.586 477.542C394.126 480.006 397.111 481.262 401.447 481.262C406.518 481.262 409.929 479.912 411.564 477.258C413.104 474.746 413.957 472.827 414.147 471.453L430.377 379.545C431.135 375.541 430.946 372.105 429.761 369.404C428.505 366.49 425.923 365.021 422.061 365.021L422.108 364.973ZM404.504 393.619C396.495 414.943 388.273 431.766 380.123 443.66C372.091 455.365 365.101 461.288 359.391 461.288C355.339 461.288 352.425 458.824 350.458 453.73C348.421 448.494 348.113 441.291 349.534 432.335C352.046 418.308 358.253 407.006 367.944 398.737C377.635 390.468 389.766 386.298 403.959 386.298H405.783L404.504 393.619Z" fill="#0D263C"/>
<path d="M524.157 368.006C522.238 365.992 519.205 364.973 515.129 364.973H493.308L502 312C502.806 307.782 501.81 304.679 499.015 302.712C496.408 300.864 493.399 299.94 490.106 299.94C487.523 299.94 485.177 300.745 483.092 302.333C481.007 303.92 479.562 306.219 478.756 309.204L469.33 364.973H447.389C443.503 364.973 440.494 365.992 438.504 367.983C436.514 369.973 435.495 372.413 435.495 375.209C435.495 378.195 436.514 380.753 438.504 382.838C440.494 384.947 443.503 386.013 447.413 386.013H465.61L450.659 470.008C450.043 473.846 451.062 476.713 453.621 478.585C456.061 480.338 458.857 481.238 461.985 481.238C464.875 481.238 467.576 480.504 470.017 479.059C472.528 477.542 474.092 475.078 474.684 471.714L489.611 386.037H515.106C519.205 386.037 522.238 384.971 524.157 382.862C526.052 380.777 527 378.218 527 375.257C527 372.461 526.029 370.044 524.133 368.03L524.157 368.006Z" fill="#0D263C"/>
<defs>
<linearGradient id="paint0_linear_19_244" x1="490.5" y1="44" x2="356" y2="338" gradientUnits="userSpaceOnUse">
<stop stop-color="#4BA1EC"/>
<stop offset="0.436918" stop-color="#529AD9"/>
<stop offset="1" stop-color="#0D263C"/>
</linearGradient>
</defs>
</svg>
