<svg width="886" height="360" viewBox="0 0 886 360" fill="none" xmlns="http://www.w3.org/2000/svg">
<path fill-rule="evenodd" clip-rule="evenodd" d="M356.13 138.483C353.815 104.284 334.136 74.4776 301.589 55.4475C269.165 36.4892 224.186 28.2516 170.275 35.7543C102.887 45.1325 57.4458 82.1982 38.2355 126.184C19.0542 170.104 26.3865 220.659 64.0062 254.13C68.1324 257.801 74.4533 257.432 78.1243 253.306C81.7954 249.18 81.4265 242.859 77.3003 239.188C46.92 212.158 40.4143 171.167 56.5638 134.189C72.6846 97.2769 111.743 64.0927 173.032 55.5634C223.621 48.523 263.826 56.5354 291.494 72.7129C319.04 88.8186 334.362 113.034 336.176 139.834C339.121 183.33 310.827 214.681 272.55 235.416C234.222 256.178 188.81 264.493 164.358 262.862C160.288 262.59 156.461 264.818 154.687 268.491C151.435 275.226 147.714 284.252 144.539 292.37C135.085 273.334 123.113 245.975 116.562 219.884C114.267 210.742 112.13 198.716 111.05 186.139C115.409 189.832 120.419 193.634 125.963 197.303C145.734 210.386 173.554 222.58 203.794 220.638C204.995 220.561 206.132 220.275 207.173 219.818C210.632 218.939 213.508 216.233 214.426 212.527C218.059 197.863 219.932 180.12 220.525 163.345C229.28 160.496 240.159 157.244 250.449 154.691C251.648 154.393 252.826 154.108 253.979 153.838C253.798 164.833 253.905 175.786 254.638 184.746C255.044 189.698 255.668 194.417 256.671 198.334C257.171 200.291 257.841 202.349 258.791 204.25C259.686 206.041 261.221 208.491 263.855 210.292C268.414 213.409 274.637 212.241 277.754 207.682C280.532 203.62 279.907 198.236 276.512 194.905C276.392 194.586 276.229 194.089 276.046 193.375C275.45 191.048 274.94 187.611 274.572 183.114C273.889 174.769 273.791 164.061 273.999 152.848C274.641 153.468 275.376 154.011 276.2 154.456C281.059 157.08 287.126 155.269 289.751 150.409C290.801 148.464 292.027 145.352 291.459 141.647C290.817 137.454 288.23 134.603 285.623 133.006C283.304 131.585 280.852 131.036 279.055 130.78C277.634 130.578 276.169 130.499 274.725 130.497C274.939 125.557 275.171 120.847 275.387 116.565C275.449 115.347 275.51 114.151 275.57 112.984L275.571 112.951C275.975 105.068 276.309 98.5299 276.224 95.7793C276.054 90.2591 271.44 85.9222 265.92 86.0926C260.4 86.2631 256.063 90.8762 256.234 96.3965C256.291 98.2562 256.006 103.867 255.576 112.337L255.576 112.338L255.503 113.768C255.474 114.352 255.444 114.948 255.413 115.556C255.145 120.853 254.851 126.868 254.594 133.204C251.642 133.832 248.628 134.536 245.632 135.279C237.342 137.336 228.551 139.861 220.61 142.331C220.239 129.222 219.054 117.453 217.134 109.549C216.022 104.972 214.001 100.605 210.463 97.4582C206.66 94.0749 201.993 92.9073 197.589 93.4802C189.794 94.4941 183.914 100.552 181.285 106.242C178.969 111.255 181.156 117.198 186.169 119.514C190.453 121.493 195.415 120.185 198.214 116.634C199.656 124.001 200.626 135.619 200.727 149.042C198.621 149.834 196.92 150.52 195.732 151.059C190.702 153.339 188.473 159.266 190.753 164.296C192.473 168.088 196.264 170.288 200.181 170.164C199.545 180.864 198.349 191.468 196.525 200.837C174.417 200.599 153.312 191.418 136.999 180.623C131.351 176.886 126.408 173.039 122.333 169.459C127.789 169.026 133.536 168.191 139.084 166.845C153.572 163.33 172.765 154.677 175.056 134.288C176.681 119.827 166.987 109.178 155.767 104.343C144.423 99.4545 129.797 99.3687 116.417 106.011C106.468 110.951 100.273 119.897 96.4982 129.59C92.7302 139.265 91.0176 150.529 90.4959 161.735C89.4519 184.164 93.0929 208.539 97.1643 224.755C107.164 264.582 128.586 306.259 137.35 321.482C137.392 321.562 137.435 321.643 137.481 321.725C138.313 323.222 140.067 325.404 143.19 326.398C146.231 327.367 148.815 326.645 150.195 326.049C151.539 325.468 152.442 324.725 152.864 324.351C154.499 322.902 155.562 321.016 156.002 319.001C156.017 318.955 156.034 318.904 156.053 318.846C156.276 318.169 156.648 317.093 157.155 315.669C158.162 312.843 159.633 308.844 161.353 304.343C163.98 297.467 167.108 289.628 170.003 283.057C199.164 283.205 243.96 273.649 282.076 253.001C323.432 230.598 359.844 193.339 356.13 138.483ZM115.135 136.848C113.664 140.624 112.548 144.995 111.761 149.82C118.046 149.914 126.386 149.346 134.368 147.409C147.98 144.107 154.453 138.532 155.181 132.054C155.513 129.102 153.859 125.298 147.852 122.71C141.968 120.174 133.488 119.866 125.31 123.925C121.317 125.908 117.816 129.963 115.135 136.848ZM276.426 150.615C276.425 150.615 276.402 150.611 276.36 150.6C276.406 150.608 276.427 150.614 276.426 150.615ZM276.681 195.307C276.724 195.381 276.722 195.389 276.682 195.309L276.681 195.307Z" fill="url(#paint0_linear_19_262)"/>
<path d="M540.315 125.053C539.628 121.854 538.017 119.058 535.529 116.76C527.236 108.467 518.256 102.212 508.826 98.1367C499.396 94.0851 489.373 92.0237 479.019 92.0237C465.94 92.0237 454.283 94.1799 444.403 98.421C434.523 102.662 425.827 108.562 418.529 115.954C411.255 123.323 405 131.9 399.93 141.472C394.883 150.997 390.642 161.375 387.348 172.322C384.055 183.221 381.354 194.428 379.34 205.588C376.591 221.225 376.26 235.394 378.369 247.715C380.477 260.059 384.458 270.745 390.192 279.417C395.926 288.113 402.986 294.842 411.137 299.367C419.288 303.916 428.054 306.215 437.153 306.215C451.013 306.215 464.069 302.945 475.963 296.477C487.833 290.032 498.685 281.55 508.257 271.243C512.38 266.741 515.01 263.282 516.242 260.699C517.522 258.045 518.043 255.866 517.83 254.065C517.616 251.435 516.55 249.326 514.607 247.786C512.712 246.293 510.248 245.535 507.31 245.535C504.514 245.535 501.907 246.625 499.562 248.805C497.358 250.819 494.515 253.496 491.008 256.813C482.834 264.988 474.281 271.74 465.585 276.906C456.96 282.023 447.483 284.63 437.413 284.63C429.808 284.63 422.794 281.526 416.563 275.389C410.284 269.205 405.687 260.131 402.915 248.426C400.119 236.674 400.072 222.458 402.797 206.133C404.242 197.39 406.28 188.528 408.815 179.809C411.35 171.113 414.572 162.631 418.387 154.622C422.178 146.661 426.941 139.506 432.556 133.369C438.148 127.256 444.806 122.375 452.364 118.845C459.922 115.338 468.76 113.561 478.688 113.561C486.056 113.561 493.283 115.054 500.201 118.039C507.12 121.001 513.944 125.811 520.436 132.303C523.35 135.217 526.407 136.734 529.558 136.829C532.757 136.947 535.458 135.881 537.638 133.677C540.054 131.261 540.931 128.346 540.22 125.029L540.315 125.053Z" fill="#0D263C"/>
<path d="M631.346 194.309C626.347 190.353 619.713 188.339 611.68 188.339C602.89 188.339 594.834 191.277 587.726 197.058C583.153 200.801 578.533 205.659 573.936 211.629L592.749 104.368C593.531 100.625 592.962 97.5917 591.043 95.3408C589.124 93.1373 586.257 92 582.537 92C579.078 92 576.116 92.853 573.77 94.5115C571.377 96.1938 569.79 98.9423 569.008 102.638L535.434 294.747C535.031 297.756 535.789 300.433 537.685 302.732C539.604 305.054 542.471 306.215 546.215 306.215C550.503 306.215 553.702 305.006 555.692 302.59C557.611 300.291 558.796 298.017 559.175 295.837L567.918 245.962C575.405 234.518 582.182 225.751 588.105 219.827C595.047 212.885 601.421 209.355 607.013 209.355C610.756 209.355 613.6 210.421 615.424 212.482C617.319 214.639 618.552 217.411 619.073 220.704C619.594 224.069 619.428 227.741 618.528 231.698L607.51 294.439C607.107 296.832 607.652 299.391 609.121 302.045C610.662 304.817 613.647 306.215 618.007 306.215C623.124 306.215 626.442 305.054 628.1 302.661C629.64 300.457 630.564 298.704 630.991 297.211L641.985 234.494C643.643 225.798 643.548 217.837 641.7 210.848C639.828 203.811 636.346 198.243 631.346 194.286V194.309Z" fill="#0D263C"/>
<path d="M753.108 189.973H733.845C720.553 189.973 708.398 192.746 697.665 198.195C686.932 203.645 677.999 211.487 671.057 221.462C664.138 231.437 659.328 243.403 656.746 257.027C653.974 272.404 655.206 284.772 660.418 293.823C665.702 302.969 674.09 307.613 685.391 307.613C693.85 307.613 702.475 303.419 711.052 295.126C716.099 290.221 720.908 283.8 725.41 275.887L721.951 295.576C721.548 297.803 722.093 300.149 723.586 302.542C725.126 305.006 728.111 306.262 732.447 306.262C737.518 306.262 740.93 304.912 742.564 302.258C744.104 299.746 744.957 297.827 745.147 296.453L761.377 204.545C762.135 200.541 761.946 197.105 760.761 194.404C759.505 191.49 756.923 190.021 753.061 190.021L753.108 189.973ZM735.504 218.619C727.495 239.943 719.273 256.766 711.123 268.66C703.091 280.365 696.101 286.288 690.391 286.288C686.339 286.288 683.425 283.824 681.458 278.73C679.421 273.494 679.113 266.291 680.534 257.335C683.046 243.308 689.254 232.006 698.944 223.737C708.635 215.468 720.766 211.298 734.959 211.298H736.783L735.504 218.619Z" fill="#0D263C"/>
<path d="M855.157 193.006C853.237 190.992 850.205 189.973 846.129 189.973H824.308L833 137C833.806 132.782 832.81 129.679 830.015 127.712C827.408 125.864 824.399 124.94 821.106 124.94C818.523 124.94 816.177 125.745 814.092 127.333C812.007 128.92 810.562 131.219 809.756 134.204L800.329 189.973H778.389C774.503 189.973 771.494 190.992 769.504 192.983C767.514 194.973 766.495 197.413 766.495 200.209C766.495 203.195 767.514 205.753 769.504 207.838C771.494 209.947 774.503 211.013 778.413 211.013H796.61L781.659 295.008C781.043 298.846 782.062 301.713 784.621 303.585C787.061 305.338 789.857 306.238 792.984 306.238C795.875 306.238 798.576 305.504 801.017 304.059C803.528 302.542 805.092 300.078 805.684 296.714L820.611 211.037H846.106C850.205 211.037 853.237 209.971 855.157 207.862C857.052 205.777 858 203.218 858 200.257C858 197.461 857.028 195.044 855.133 193.03L855.157 193.006Z" fill="#0D263C"/>
<defs>
<linearGradient id="paint0_linear_19_262" x1="262.653" y1="32.6588" x2="128.153" y2="326.659" gradientUnits="userSpaceOnUse">
<stop stop-color="#4BA1EC"/>
<stop offset="0.436918" stop-color="#529AD9"/>
<stop offset="1" stop-color="#0D263C"/>
</linearGradient>
</defs>
</svg>
