<svg width="370" height="80" viewBox="0 0 370 80" fill="none" xmlns="http://www.w3.org/2000/svg">
<path fill-rule="evenodd" clip-rule="evenodd" d="M361.778 18.5H278.528V62.6944H361.778V18.5ZM296.106 32.8987V39.2081H303.899V42.456H296.106V48.4296H304.839V51.827H292.146V29.9197H304.839V32.8987H296.106ZM337.831 43.3151V51.8248H334.052V29.9222H334.748V29.9197H345.911L348.726 32.8965V40.3898L345.911 43.3151H337.831ZM337.831 33.6083V39.6265H345.037V33.6083H337.831ZM314.785 39.6265H321.991V33.6083H314.785V39.6265ZM311.702 29.9222H311.005L311.006 51.8248H314.785V43.3151H318.622L323.468 51.7643H327.885L322.88 43.2998L325.68 40.3898V32.8965L322.865 29.9197H311.702V29.9222Z" fill="white"/>
<path d="M272.49 22.6111L279.941 25.6944V33.4028L275.573 30.8333V36.4861L265.295 25.1806L272.49 27.75V22.6111Z" fill="white"/>
<g clip-path="url(#clip0_271_1457)">
<path d="M11 41.1481V57.9634L34.2149 72.5286V55.7133L11 41.1481Z" fill="white"/>
<path d="M39.2715 8.90002V25.7546L61.5142 38.8051V22.5957L39.2715 8.90002Z" fill="white"/>
<path d="M61.5145 38.8051V43.7719L39.4824 57.73V41.6727L52.3443 33.4244L61.5145 38.8051Z" fill="white"/>
<path d="M21.6761 12.5903H17.7881V16.4783H21.6761V12.5903Z" fill="white"/>
<path d="M29.4133 16.6051H23.9893V22.0291H29.4133V16.6051Z" fill="white"/>
<path d="M66.2588 16.5824V20.5482H72.2343V38.8176H76.7612V20.5482H82.7464V16.5824H66.2588Z" fill="white"/>
<path d="M99.4677 20.5482V16.5824H86.0859V38.8176H90.6128H99.4677V34.8518H90.6128V29.4884H97.5695V25.5226H90.6128V20.5482H99.4677Z" fill="white"/>
<path d="M240.829 38.8176L231.075 27.0332L239.851 16.5824H234.466L226.226 26.4514V16.5824H221.699V38.8176H226.226V32.8083L228.333 30.2994L235.444 38.8176H240.829Z" fill="white"/>
<path d="M137.869 16.5824V25.5226H129.318V16.5824H124.791V38.8176H129.318V29.4884H137.869V38.8176H142.396V16.5824H137.869Z" fill="white"/>
<path d="M172.411 59.1429V46.6094H169.4V59.1429V61.6766H172.411H177.637V59.1429H172.411Z" fill="white"/>
<path d="M193.678 61.6669H196.633L191.249 46.5997H188.181L182.796 61.6669H185.751L186.885 58.4516H192.545L193.679 61.6669H193.678ZM187.799 55.8573L189.714 50.4264L191.629 55.8573H187.799Z" fill="white"/>
<path d="M170.045 16.5824L166.493 30.5769L162.941 16.5824H157.431L153.879 30.5769L150.327 16.5824H145.8L151.443 38.8176H156.314L160.186 23.5645L164.058 38.8176H168.928L174.572 16.5824H170.045Z" fill="white"/>
<path d="M119.851 23.1266V18.6555L116.221 16.5824H107.135L103.505 18.6555V36.7438L107.135 38.8176H116.221L119.851 36.7438V32.2727L115.324 32.1818V35.0329H108.032V20.3664H115.324V23.2175L119.851 23.1266Z" fill="white"/>
<path d="M191.767 16.5824H181.653L178.023 18.6561V36.7438L181.653 38.8175H191.767L195.397 36.7438V18.6554L191.767 16.5817V16.5824ZM190.87 35.0328H182.55V20.3664H190.87V35.0328Z" fill="white"/>
<path d="M255.37 25.9667H247.981V20.3664H254.472V22.9263H259V18.6555L255.369 16.5824H247.085L243.454 18.6555V27.6776L247.085 29.7514H254.473V35.1589H247.722V32.5653H243.195V36.8691L246.825 38.9429H255.37L259 36.8691V28.0405L255.37 25.9667Z" fill="white"/>
<path d="M212.801 30.5335L216.431 28.4597V18.6554L212.801 16.5817H200.608V38.8175H205.135V30.5342H207.823L212.564 38.8175H217.541L212.8 30.5342L212.801 30.5335ZM205.135 26.7495V20.3664H211.904V26.7495H205.135Z" fill="white"/>
<path d="M211.255 46.6094H203.17V61.6766H211.255L213.834 60.2114V55.0091L211.903 53.9116L213.834 52.8142V48.0752L211.255 46.6101V46.6094ZM210.788 59.0823H206.18V55.1716H210.788V59.0823ZM210.788 51.1204V52.5773H206.18V49.2037H210.788V51.1204Z" fill="white"/>
<path d="M232.376 50.8354V48.0752L229.797 46.6094H224.423L221.844 48.0752V53.8813L224.423 55.3472H229.33V59.0823H224.889V57.5359H221.844V60.2114L224.423 61.6766H229.797L232.376 60.2114V56.9782V54.218L229.797 52.7529H224.889V49.2037H229.33V50.8354H232.376Z" fill="white"/>
<path d="M158.767 54.163V47.1416H160.984V45.0424H158.482L155.981 46.4937V46.9846V47.1416V53.9688H154.166V56.1672H155.981V62.9937V63.1514V63.6423L158.482 65.0936H160.984V62.9937H158.767V55.9723L157.299 55.0676L158.767 54.163Z" fill="white"/>
<path d="M242.658 54.163V47.1416H240.441V45.0424H242.943L245.444 46.4937V46.9846V47.1416V53.9688H247.259V56.1672H245.444V62.9937V63.1514V63.6423L242.943 65.0936H240.441V62.9937H242.658V55.9723L244.126 55.0676L242.658 54.163Z" fill="white"/>
<path d="M29.4147 29.6494H24.4754V33.1484H19.0513V30.7373L11 35.8749V41.1481L20.1647 46.8978L34.6232 37.6553V20.8008L29.4147 24.1242V29.6494Z" fill="white"/>
</g>
<defs>
<clipPath id="clip0_271_1457">
<rect width="248" height="63.6287" fill="white" transform="translate(11 8.90002)"/>
</clipPath>
</defs>
</svg>
